<svg width="24" height="24" viewBox="0 0 24 24" fill="none" xmlns="http://www.w3.org/2000/svg">
<path d="M24 12C23.9997 12.9026 23.8983 13.8024 23.6976 14.6824C23.1029 17.2597 21.6738 19.5686 19.6322 21.2504C17.5906 22.9321 15.0508 23.8927 12.4072 23.9829C12.2707 23.9829 12.1366 23.9829 12 23.9829C11.6708 23.9829 11.3465 23.9829 11.0246 23.9439C8.02253 23.7004 5.22177 22.337 3.17816 20.1245C1.13456 17.9119 -0.00248876 15.0119 -0.00731242 12C-0.011315 9.15048 1.00315 6.39335 2.85308 4.22597C3.37435 3.61078 3.95691 3.05028 4.59175 2.55314C6.7027 0.890066 9.31264 -0.0128448 12 -0.00975307C13.6005 -0.0120734 15.1852 0.30719 16.66 0.929082C17.7597 1.39369 18.7838 2.01999 19.6984 2.78724C19.8838 2.94087 20.0642 3.10181 20.2398 3.27495C20.3568 3.38468 20.469 3.49441 20.5787 3.60902C20.9824 4.01952 21.3556 4.4588 21.6956 4.92339C21.7639 5.01605 21.8297 5.10872 21.8931 5.20382L21.9736 5.32087C22.1004 5.51108 22.2174 5.70372 22.3369 5.90124C22.3662 5.94757 22.393 5.99634 22.4198 6.04511C22.6488 6.43851 22.8533 6.84571 23.0319 7.26438C23.1928 7.6381 23.3344 8.01983 23.4562 8.40805C23.8195 9.57065 24.0029 10.782 24 12Z" fill="#069EDF"/>
<path d="M17.6452 7.81563C17.6458 8.36551 17.5836 8.91366 17.4599 9.44945C17.101 11.017 16.2341 12.4219 14.9939 13.4455C13.7537 14.4692 12.2099 15.0541 10.6028 15.1093C10.5198 15.1093 10.4369 15.1093 10.3589 15.1093C10.1589 15.1093 9.96142 15.102 9.76634 15.0873C7.94171 14.9379 6.24005 14.1076 4.99947 12.7613C3.75888 11.415 3.07016 9.65125 3.07014 7.82051C3.06719 6.08938 3.68295 4.41418 4.80637 3.09708C5.1234 2.72363 5.47713 2.38296 5.86225 2.08022C7.14489 1.07378 8.72854 0.527572 10.3589 0.529311C11.3314 0.527384 12.2942 0.721452 13.19 1.09993C13.8586 1.38134 14.4809 1.76197 15.036 2.22896C15.1498 2.32163 15.2595 2.41917 15.3652 2.52159C15.4359 2.58743 15.5042 2.65327 15.5725 2.72399C15.8164 2.97329 16.0421 3.23977 16.2479 3.52138C16.2894 3.57503 16.3284 3.63356 16.3674 3.68964L16.4138 3.7628C16.4918 3.87741 16.565 4.00665 16.6357 4.11395C16.6552 4.14321 16.6698 4.17247 16.6869 4.20173C16.8259 4.44073 16.9513 4.68742 17.0624 4.94061C17.1559 5.16781 17.2373 5.39979 17.3063 5.63559C17.5288 6.34096 17.6431 7.07599 17.6452 7.81563Z" fill="#14B6EF"/>
<path d="M22.4272 6.04272C22.2371 6.12817 22.036 6.18645 21.8297 6.21586C21.7809 6.23049 21.698 6.1744 21.698 6.28414C21.698 6.39387 21.681 6.43776 21.7858 6.46215C21.8301 6.4731 21.8733 6.48779 21.9151 6.50604C22.137 6.59871 22.1589 6.79379 22.0931 7.02301C22.0492 7.19127 21.8956 7.24979 21.6785 7.19127C21.498 7.14272 21.3119 7.11812 21.125 7.11811C20.9762 7.11811 20.9104 7.18151 20.9177 7.32783C20.9214 7.52139 20.8967 7.71445 20.8445 7.90088C20.8092 8.04753 20.8092 8.20049 20.8445 8.34713C20.8689 8.45443 21.0201 8.34713 21.0884 8.41785C21.1255 8.45153 21.1674 8.47948 21.2128 8.50076C21.2574 8.53137 21.3094 8.54954 21.3634 8.5534C21.4174 8.55726 21.4715 8.54666 21.52 8.52271C21.6174 8.47714 21.7248 8.457 21.8322 8.46418C21.907 8.46702 21.9813 8.45057 22.0479 8.4164C22.1145 8.38224 22.1712 8.33151 22.2126 8.2691C22.2558 8.20949 22.2857 8.14131 22.3004 8.06914C22.3379 7.93999 22.4125 7.82468 22.5149 7.7375C22.6466 7.6107 22.888 7.58875 22.8905 7.33027C22.8905 7.29369 22.9563 7.25711 23.027 7.26443C22.8509 6.84593 22.6506 6.43801 22.4272 6.04272ZM23.9756 11.1392C23.9111 10.2137 23.7392 9.29883 23.4635 8.41297C23.3468 8.44333 23.2242 8.44333 23.1075 8.41297C22.9348 8.37875 22.7571 8.37923 22.5846 8.4144C22.4121 8.44957 22.2483 8.51871 22.1028 8.61781C22.03 8.67706 21.9398 8.71081 21.846 8.7139C21.7522 8.71698 21.66 8.68922 21.5834 8.63488C21.5569 8.60957 21.5244 8.59125 21.4891 8.58154C21.4537 8.57184 21.4164 8.57106 21.3807 8.57927C21.3449 8.58749 21.3118 8.60444 21.2842 8.62861C21.2566 8.65279 21.2354 8.68342 21.2225 8.71779C21.1563 8.85149 21.0436 8.95642 20.9055 9.01285C20.826 9.05176 20.7585 9.11158 20.7104 9.18589C20.6623 9.26021 20.6353 9.34623 20.6324 9.43472C20.6258 9.53639 20.5913 9.63428 20.5328 9.71771C20.4744 9.80114 20.3941 9.86689 20.3008 9.90779C20.0646 10.0538 19.8725 10.2611 19.7448 10.5077C19.6827 10.6323 19.6101 10.7514 19.5277 10.8637C19.4352 10.9641 19.3762 11.0909 19.3592 11.2264C19.3421 11.362 19.3678 11.4994 19.4326 11.6196C19.4393 11.6313 19.445 11.6436 19.4497 11.6562C19.4874 11.7571 19.4977 11.8662 19.4797 11.9724C19.4617 12.0785 19.4161 12.1781 19.3473 12.261C19.2522 12.3975 19.2815 12.9925 19.3961 13.0828C19.4063 13.0911 19.4178 13.0977 19.4302 13.1023C19.5395 13.1574 19.6366 13.234 19.7158 13.3274C19.795 13.4208 19.8546 13.5292 19.8911 13.6461C19.9752 13.8325 20.0983 13.9988 20.252 14.1338C20.5275 14.3776 20.8299 14.5459 21.2274 14.3776C21.3344 14.3158 21.4613 14.2983 21.581 14.3288C21.7741 14.3846 21.981 14.3664 22.1614 14.2776C22.3174 14.2289 22.4686 14.1606 22.6247 14.1094C22.7092 14.0775 22.8026 14.078 22.8868 14.1109C22.9711 14.1437 23.0401 14.2066 23.0807 14.2874C23.1441 14.4873 23.2636 14.463 23.4123 14.4313C23.5611 14.3996 23.5976 14.463 23.5781 14.5849C23.5781 14.6532 23.5781 14.7214 23.6684 14.6922H23.7001C23.9008 13.8122 24.0022 12.9124 24.0024 12.0098C23.9976 11.7099 23.9878 11.4221 23.9659 11.1392H23.9756Z" fill="#A6F94E"/>
<path d="M21.2079 8.50559L21.3249 8.48121C21.6298 8.42024 21.9248 8.35684 22.215 8.27881C22.1736 8.34122 22.1169 8.39194 22.0503 8.42611C21.9837 8.46027 21.9094 8.47673 21.8346 8.47389C21.7273 8.46671 21.6199 8.48684 21.5225 8.53241C21.4726 8.55709 21.4169 8.56763 21.3614 8.5629C21.306 8.55817 21.2529 8.53835 21.2079 8.50559Z" fill="#FEE55D"/>
<path d="M23.9659 11.1393C23.7616 10.9998 23.5144 10.9376 23.2685 10.9637C22.7027 11.0442 22.415 11.6563 22.0858 12.122C22.0043 12.2558 21.8845 12.362 21.7419 12.4268C21.616 12.4551 21.4849 12.4511 21.3609 12.4153C21.2369 12.3795 21.1239 12.313 21.0323 12.222C20.8518 12.0386 20.6362 11.8934 20.3983 11.7953C20.1325 11.7197 19.8399 11.7953 19.5814 11.7123C19.5364 11.6965 19.493 11.6761 19.4522 11.6514C19.4475 11.6387 19.4418 11.6265 19.4351 11.6148C19.3703 11.4946 19.3446 11.3571 19.3616 11.2216C19.3787 11.0861 19.4376 10.9593 19.5302 10.8589C19.6126 10.7466 19.6852 10.6275 19.7472 10.5028C19.8725 10.2521 20.0639 10.0405 20.3008 9.89077C20.3941 9.84987 20.4744 9.78412 20.5329 9.70069C20.5913 9.61726 20.6258 9.51936 20.6324 9.41769C20.6383 9.33217 20.6667 9.24972 20.7147 9.17865C20.7626 9.10758 20.8284 9.05041 20.9055 9.0129C21.0369 8.95537 21.1439 8.85353 21.2079 8.72515C21.2208 8.69079 21.2419 8.66014 21.2695 8.63597C21.2971 8.6118 21.3303 8.59485 21.3661 8.58663C21.4018 8.57842 21.439 8.5792 21.4744 8.5889C21.5098 8.59861 21.5422 8.61693 21.5688 8.64224C21.6453 8.69658 21.7376 8.72434 21.8314 8.72125C21.9252 8.71817 22.0154 8.68442 22.0882 8.62517C22.2337 8.52607 22.3975 8.45693 22.57 8.42176C22.7424 8.38659 22.9202 8.38611 23.0929 8.42033C23.2096 8.4507 23.3322 8.4507 23.4489 8.42033C23.7257 9.30363 23.8992 10.216 23.9659 11.1393Z" fill="#FEE55D"/>
<path d="M16.009 16.1431C15.8358 16.0921 15.6814 15.9911 15.5652 15.8529C15.5408 15.831 15.531 15.7773 15.5115 15.7773C15.2148 15.7108 14.9104 15.6853 14.6068 15.7017C14.5919 15.6023 14.5409 15.5117 14.4636 15.4474C14.3862 15.3831 14.2879 15.3495 14.1874 15.353C14.0704 15.353 13.9216 15.4359 13.8704 15.2311C13.8533 15.1604 13.7655 15.197 13.707 15.1872C13.6485 15.1775 13.5924 15.1872 13.6192 15.1457C13.7216 14.9726 13.5778 14.8604 13.5388 14.7214C13.4046 14.2679 13.2144 14.1167 12.756 14.1264C12.6692 14.1299 12.5827 14.1142 12.5026 14.0805C12.4225 14.0468 12.3509 13.9959 12.2927 13.9314C12.1735 13.7679 12.0305 13.6232 11.8684 13.5022C11.7416 13.429 11.8684 13.3169 11.8684 13.2242C11.9293 13.2242 11.9878 13.2242 11.961 13.1364C11.9342 13.0486 11.8586 13.1096 11.805 13.1023C11.8513 13.3071 11.5611 13.1462 11.5611 13.3071C11.5611 13.3315 11.5123 13.3559 11.4758 13.3315C11.3758 13.273 11.266 13.3144 11.1587 13.3047C10.9452 13.3093 10.7376 13.2345 10.5759 13.0949C10.5249 13.0456 10.4591 13.0143 10.3887 13.006C10.3182 12.9976 10.2469 13.0126 10.1858 13.0486C10.1638 13.0486 10.1516 13.112 10.1151 13.0486C10.0078 12.8852 9.90534 12.8779 9.76147 13.0145C9.71758 13.0559 9.66881 13.1266 9.62247 13.1266C9.40788 13.1266 9.33229 13.2632 9.24938 13.4193C9.20549 13.4973 9.15915 13.6436 9.00553 13.5412C8.92736 13.4907 8.83795 13.4603 8.74523 13.4527C8.6525 13.445 8.55931 13.4603 8.47393 13.4973C8.41967 13.5038 8.36464 13.4988 8.31246 13.4826C8.26027 13.4664 8.2121 13.4393 8.17112 13.4031C8.13013 13.367 8.09725 13.3226 8.07463 13.2728C8.05201 13.2231 8.04017 13.1691 8.03987 13.1145C8.05077 12.928 8.0777 12.7428 8.12034 12.5609C8.17155 12.3561 8.09596 12.2561 7.87649 12.2463C7.75657 12.2233 7.63262 12.2334 7.51802 12.2756C7.48852 12.2944 7.45318 12.3018 7.41862 12.2964C7.38406 12.291 7.35265 12.2732 7.33026 12.2463C7.29856 12.1976 7.34733 12.1561 7.36684 12.1122C7.45706 11.9001 7.54485 11.6855 7.63751 11.4758C7.67897 11.3831 7.71067 11.288 7.60581 11.2319C7.49464 11.1972 7.37512 11.2001 7.26578 11.2402C7.15644 11.2804 7.06339 11.3554 7.00106 11.4538C6.95503 11.5469 6.88616 11.6268 6.80087 11.6861C6.71559 11.7454 6.61666 11.7821 6.51335 11.7928C6.424 11.8081 6.33211 11.7922 6.25307 11.7478C6.17404 11.7034 6.11268 11.6332 6.07929 11.5489C6.01437 11.4495 5.97219 11.337 5.95575 11.2194C5.93931 11.1018 5.94902 10.982 5.98419 10.8686C6.05571 10.6914 6.1128 10.5087 6.15489 10.3223C6.16451 10.2563 6.19247 10.1944 6.23558 10.1435C6.27869 10.0926 6.33522 10.0549 6.39874 10.0346C6.50891 9.99131 6.61301 9.93393 6.70843 9.8639C6.77125 9.80051 6.85379 9.76042 6.94244 9.75022C7.03109 9.74003 7.12057 9.76034 7.19614 9.80781C7.34001 9.8834 7.55704 9.98338 7.68385 9.72246C7.71459 9.6779 7.76056 9.64611 7.81311 9.63309C7.86566 9.62006 7.92116 9.6267 7.96915 9.65174C8.07244 9.71223 8.18861 9.74734 8.30811 9.75416C8.49587 9.73709 8.58122 9.84682 8.56659 10.0297C8.56424 10.1827 8.59328 10.3346 8.65194 10.476C8.66156 10.5149 8.68372 10.5496 8.715 10.5747C8.74629 10.5999 8.78497 10.614 8.82508 10.615C8.9275 10.6272 8.947 10.5564 8.9787 10.493C9.02813 10.3749 9.03671 10.2436 9.00309 10.1199C8.95188 9.85658 8.87385 9.57859 9.13477 9.37131C9.29509 9.23196 9.47103 9.11167 9.65905 9.01285C9.99557 8.85678 10.198 8.64707 10.1126 8.23252C10.2224 8.28373 10.2638 8.28373 10.3101 8.16424C10.3711 8.00574 10.5954 7.98623 10.6906 7.8643C10.8017 7.73526 10.9543 7.64902 11.1222 7.62045C11.2685 7.58143 11.4172 7.53266 11.4392 7.34245C11.4392 7.28881 11.4855 7.2693 11.5318 7.24979C11.7391 7.15713 11.944 7.05959 12.2024 6.93766C12.1244 7.0474 12.1073 7.12055 12.1659 7.18151C12.1941 7.207 12.2299 7.22247 12.2678 7.22556C12.3057 7.22864 12.3436 7.21916 12.3756 7.19858C12.5718 7.09341 12.7797 7.01157 12.995 6.95473C13.0754 6.93278 13.1803 6.88401 13.1535 6.77915C13.1266 6.6743 13.012 6.75233 12.9413 6.73282C12.9284 6.73038 12.9152 6.73038 12.9023 6.73282C12.8488 6.74591 12.7924 6.74051 12.7424 6.71748C12.6924 6.69446 12.6516 6.65517 12.6267 6.60602C12.556 6.50116 12.6731 6.47678 12.7121 6.42069C12.7511 6.3646 12.8169 6.2817 12.7852 6.20122C12.7535 6.12075 12.6584 6.16952 12.5902 6.15733C12.552 6.15366 12.5137 6.15366 12.4756 6.15733C12.4877 6.10368 12.5121 6.08174 12.5487 6.07442C12.7156 6.01748 12.8936 6.00077 13.0681 6.02565C13.329 6.09393 13.5851 5.95005 13.9021 5.91348C13.7757 6.05193 13.6422 6.18379 13.5022 6.30852C13.4845 6.32138 13.4703 6.33827 13.4605 6.35779C13.4507 6.3773 13.4458 6.39887 13.4461 6.42069C13.4461 6.46215 13.4607 6.48166 13.5046 6.48409C13.7615 6.53409 14.0256 6.53409 14.2825 6.48409C14.3605 6.46215 14.4727 6.50116 14.4703 6.35973C14.4758 6.30466 14.461 6.24947 14.4287 6.20455C14.3963 6.15964 14.3487 6.1281 14.2947 6.11587C14.1728 6.08661 14.1142 6.05004 14.1825 5.91592C14.224 5.83545 14.1362 5.8135 14.0655 5.79643C14.1253 5.76607 14.1832 5.73186 14.2386 5.69401C14.2947 5.65945 14.3386 5.60813 14.3639 5.54732C14.3893 5.4865 14.3949 5.41925 14.38 5.35505C14.3435 5.22094 14.224 5.22581 14.1142 5.23069C14.0045 5.23557 14.007 5.19899 13.9704 5.12827C13.87 4.89719 13.8162 4.64861 13.8119 4.39671C13.7924 4.20651 13.6899 4.15286 13.5363 4.26503C13.4505 4.33825 13.3583 4.40355 13.2608 4.46012C13.2096 4.48694 13.1657 4.51864 13.1169 4.47718C13.0681 4.43573 13.0315 4.41134 13.0657 4.326C13.0802 4.28612 13.0855 4.2435 13.0813 4.20129C13.077 4.15908 13.0634 4.11836 13.0413 4.08214C12.9047 3.86999 12.2707 3.7822 12.1098 3.89682C12.0634 3.92423 12.0274 3.96625 12.0074 4.0163C11.9293 4.26015 11.5855 4.3894 11.6586 4.73323C11.6586 4.79663 11.5538 4.95514 11.4148 5.00147C11.3365 5.03659 11.26 5.07566 11.1856 5.11852C11.132 5.13676 11.0844 5.169 11.0475 5.21187C11.0106 5.25475 10.9859 5.30671 10.9759 5.36237C10.949 5.4721 10.9295 5.60622 10.8174 5.67206C10.7735 5.69645 10.7223 5.77692 10.6613 5.71596C10.6003 5.65499 10.5442 5.59403 10.5833 5.50624C10.6223 5.41846 10.6369 5.36969 10.6637 5.30628C10.7247 5.16485 10.7247 5.08926 10.5442 5.06243C10.4211 5.04198 10.3043 4.9936 10.2028 4.921C10.1177 4.84642 10.0108 4.80112 9.89803 4.79176C9.68588 4.79176 9.59809 4.62837 9.55907 4.47718C9.52006 4.32599 9.69319 4.28698 9.78098 4.19919C10.0102 3.97728 10.3857 3.99435 10.5711 3.71149C10.5923 3.6942 10.6193 3.68551 10.6467 3.6871C10.8399 3.67133 11.0311 3.6362 11.2173 3.58224C11.2173 3.8261 11.388 3.73587 11.4953 3.71149C11.5699 3.68669 11.6512 3.69194 11.722 3.72612C11.8074 3.77245 11.9147 3.82366 11.9659 3.69685C12.0171 3.57005 12.0025 3.453 11.8489 3.41886C11.7441 3.37446 11.6309 3.35365 11.5172 3.3579C11.6513 3.27987 11.6513 3.27987 11.9635 3.27743C12.0775 3.27537 12.1886 3.24015 12.283 3.17606C12.3773 3.11197 12.4511 3.02179 12.4951 2.91653C12.5268 2.81655 12.5414 2.69218 12.3609 2.69218C12.1805 2.69218 11.9805 2.67024 11.8537 2.86776C11.8318 2.90017 11.8024 2.92684 11.7681 2.94552C11.7337 2.96419 11.6953 2.97432 11.6562 2.97505C11.7074 2.8263 11.705 2.7312 11.5148 2.7312C11.4343 2.7312 11.3855 2.6995 11.4172 2.60927C11.4928 2.40687 11.4172 2.32396 11.1953 2.36542L11.2904 2.17765C11.2904 2.35323 11.4075 2.36054 11.4953 2.31909C11.6635 2.24105 11.844 2.26056 12.0098 2.1996C12.0391 2.04109 11.9732 1.98257 11.8098 1.99233C11.6711 2.00048 11.534 2.02755 11.4026 2.07279C11.3782 2.07279 11.3368 2.13132 11.3246 2.08986C11.2685 1.9021 11.1514 2.0289 11.0539 2.02402C10.8832 2.02402 10.7832 2.20204 10.6076 2.16302C10.5711 2.16302 10.5052 2.13132 10.4955 2.20935C10.4857 2.28739 10.5272 2.29226 10.5637 2.32397C10.6188 2.37338 10.6832 2.41116 10.7532 2.43505C10.8232 2.45893 10.8972 2.46843 10.971 2.46296C10.9246 2.49466 10.8491 2.51417 10.8491 2.53368C10.8491 2.70925 10.7247 2.65316 10.6271 2.65316C10.3833 2.65316 10.3272 2.69462 10.3345 2.93847C10.0907 2.9214 9.84682 3.0165 9.60297 2.858C9.79714 2.87968 9.99309 2.83775 10.1614 2.73851C10.2955 2.65317 10.3077 2.58489 10.1614 2.49466C10.0907 2.45565 10.0785 2.4337 10.1273 2.36542C10.176 2.29714 10.2199 2.17278 10.1492 2.12157C10.1026 2.09275 10.0477 2.08045 9.99331 2.08664C9.9389 2.09284 9.88816 2.11716 9.84926 2.15571C9.81756 2.18741 9.79805 2.25569 9.74684 2.15571C9.69563 2.05573 9.61516 2.08255 9.53713 2.1362C9.48753 2.17068 9.42691 2.18554 9.36699 2.17788C9.30707 2.17022 9.25213 2.1406 9.2128 2.09474C9.05168 1.96567 8.85107 1.89593 8.64463 1.89722C8.27885 1.85089 8.01548 2.10206 7.71555 2.24349C7.65458 2.27519 7.6619 2.34347 7.67653 2.39224C7.68379 2.42226 7.70007 2.44933 7.72317 2.46982C7.74628 2.49031 7.7751 2.50324 7.80577 2.50686C7.88938 2.51833 7.9745 2.50386 8.04962 2.4654C8.10845 2.42106 8.1776 2.39242 8.25055 2.38219C8.3235 2.37195 8.39785 2.38044 8.46661 2.40687C8.43247 2.46296 8.31299 2.37517 8.32274 2.48978C8.33249 2.60439 8.4276 2.53856 8.48368 2.54831C8.55753 2.55442 8.63175 2.55442 8.70559 2.54831C8.59291 2.57967 8.47626 2.59446 8.35932 2.5922C8.31786 2.5922 8.2569 2.55806 8.24227 2.63122C8.22764 2.70437 8.26421 2.72388 8.31786 2.75558C8.44937 2.83477 8.59676 2.8839 8.74948 2.89945C8.69693 2.91705 8.64115 2.92288 8.5861 2.91653C8.48856 2.90189 8.29835 3.12868 8.31299 2.81167C8.31299 2.81167 8.29104 2.7946 8.27885 2.7946C8.11059 2.81655 7.97891 2.70437 7.82528 2.66536C7.61557 2.61171 7.38634 2.69462 7.20589 2.61415C6.94253 2.49954 6.71819 2.59952 6.47433 2.61415C6.23048 2.62878 5.98663 2.7946 5.71351 2.74095C5.3453 2.66292 4.98195 2.59708 4.60642 2.52636C3.97103 3.02287 3.3884 3.58343 2.86775 4.19919H2.89945C3.19939 4.26991 3.41642 4.47474 3.69685 4.56497C3.71977 4.57269 3.73966 4.58746 3.75368 4.60717C3.7677 4.62688 3.77512 4.65052 3.77488 4.67471C3.77488 4.6869 3.74806 4.70153 3.73343 4.70397C3.66271 4.7186 3.66759 4.66983 3.65052 4.6235C3.63345 4.57716 3.56029 4.57716 3.51396 4.59179C3.46763 4.60643 3.453 4.70153 3.453 4.76981C3.453 4.83809 3.53591 4.83809 3.57249 4.82346C3.6554 4.79663 3.75294 4.81126 3.76757 4.86979C3.7822 4.92831 3.85048 5.03804 3.7505 5.11364C3.68044 5.31889 3.65956 5.53774 3.68954 5.75254C3.68954 5.79643 3.68954 5.82081 3.64564 5.81837C3.56517 5.81837 3.49445 5.81838 3.49201 5.93543C3.49039 5.98484 3.50035 6.03395 3.5211 6.07884C3.54185 6.12372 3.57281 6.16313 3.6115 6.19391C3.7188 6.28657 3.85535 6.25975 3.98216 6.28413C3.94558 6.33534 3.92851 6.33534 3.88949 6.32315C3.85511 6.30476 3.81683 6.29489 3.77784 6.29435C3.73886 6.29382 3.70031 6.30264 3.66544 6.32008C3.63057 6.33751 3.60039 6.36305 3.57742 6.39456C3.55446 6.42607 3.53939 6.46263 3.53347 6.50116C3.40423 6.8767 3.07746 7.12055 2.89701 7.47657C2.76737 7.68731 2.71239 7.93554 2.74095 8.18131C2.78109 8.34869 2.81283 8.51797 2.83605 8.68852C2.83144 8.74853 2.84626 8.80844 2.87831 8.85938C2.91037 8.91032 2.95796 8.94959 3.01406 8.97139C3.08438 8.99826 3.14274 9.04945 3.17853 9.11567C3.21433 9.18189 3.22519 9.25875 3.20915 9.33229C3.17996 9.48539 3.20956 9.64387 3.29205 9.77611C3.31808 9.81042 3.33562 9.85039 3.34324 9.89277C3.35087 9.93515 3.34837 9.97873 3.33595 10.02C3.31572 10.0732 3.31629 10.1321 3.33752 10.185C3.35876 10.2379 3.39911 10.2808 3.45056 10.3053C3.49594 10.3292 3.53262 10.3668 3.55539 10.4128C3.57816 10.4587 3.58584 10.5107 3.57736 10.5613C3.56029 10.7271 3.70173 10.8052 3.79439 10.9247C3.81978 10.9424 3.84999 10.9519 3.88096 10.9519C3.91192 10.9519 3.94214 10.9424 3.96753 10.9247C4.00898 10.8881 3.98947 10.8247 3.96753 10.7735C3.88235 10.64 3.82819 10.4892 3.80902 10.3321C3.78316 10.1292 3.71504 9.93398 3.60906 9.75904C3.57904 9.69255 3.55615 9.62308 3.54079 9.55176C3.53346 9.52844 3.53516 9.50322 3.54555 9.48109C3.55593 9.45896 3.57425 9.44154 3.59687 9.43228C3.65539 9.40301 3.6749 9.46641 3.70904 9.49324C3.74318 9.52006 3.73831 9.56395 3.74562 9.60297C3.83448 10.0129 4.01822 10.3962 4.2821 10.7223C4.42841 10.9198 4.60642 11.1149 4.48693 11.4026C4.47083 11.4516 4.47064 11.5044 4.48642 11.5534C4.50219 11.6025 4.5331 11.6453 4.57472 11.6757C4.86963 11.9041 5.19885 12.0843 5.55013 12.2098C5.72327 12.2951 5.89396 12.4024 6.09392 12.2927C6.12436 12.2744 6.15822 12.2627 6.1934 12.2581C6.22857 12.2535 6.26431 12.2562 6.2984 12.2661C6.33248 12.2759 6.36417 12.2927 6.39151 12.3153C6.41884 12.3379 6.44122 12.3659 6.45727 12.3975C6.54452 12.5227 6.66209 12.6237 6.79898 12.6911C6.93588 12.7585 7.08762 12.79 7.24003 12.7828C7.25509 12.7815 7.27027 12.7831 7.28469 12.7877C7.29911 12.7922 7.31248 12.7996 7.32404 12.8094C7.3356 12.8191 7.34512 12.831 7.35205 12.8445C7.35897 12.8579 7.36317 12.8726 7.3644 12.8877C7.4137 13.0555 7.49668 13.2114 7.60825 13.3461C7.8005 13.6257 8.09306 13.8204 8.42516 13.8899C8.51051 13.907 8.58366 13.8899 8.57391 13.7704C8.57391 13.6899 8.66657 13.6631 8.72022 13.6631C8.73658 13.6638 8.75256 13.6682 8.76689 13.6761C8.78122 13.684 8.7935 13.6952 8.80274 13.7087C8.81199 13.7222 8.81794 13.7377 8.82012 13.7539C8.82231 13.7701 8.82066 13.7866 8.81532 13.8021C8.79581 13.8972 8.86165 13.9655 8.89336 14.046C8.94191 14.149 8.961 14.2634 8.94852 14.3766C8.93604 14.4898 8.89247 14.5973 8.82264 14.6873C8.6348 14.8931 8.47865 15.1257 8.35932 15.3774C8.31542 15.4945 8.27397 15.6213 8.37395 15.7115C8.47393 15.8017 8.44223 15.7846 8.39346 15.8554C8.3501 15.9048 8.31793 15.963 8.29917 16.026C8.28041 16.089 8.27549 16.1553 8.28476 16.2204C8.29402 16.2855 8.31725 16.3478 8.35285 16.403C8.38845 16.4583 8.43557 16.5052 8.491 16.5406C8.55638 16.6068 8.61146 16.6824 8.65438 16.7649C8.75436 16.9356 8.79825 17.1331 8.89823 17.3112C8.93262 17.3823 8.97606 17.4487 9.02747 17.5087C9.086 17.5745 9.17135 17.6257 9.19817 17.7281C9.24231 17.8599 9.3141 17.9807 9.40872 18.0825C9.50335 18.1843 9.61863 18.2647 9.74684 18.3183C10.1419 18.5207 10.4516 18.806 10.4589 19.3181C10.4589 19.4888 10.3516 19.657 10.4126 19.8058C10.5003 20.0374 10.4126 20.2642 10.4467 20.491C10.4467 20.5422 10.4662 20.5983 10.4686 20.6471C10.4882 20.969 10.5906 21.2762 10.6101 21.5957C10.6296 21.9151 10.5272 22.2175 10.6345 22.5467C10.6674 22.7386 10.7517 22.9181 10.8783 23.0661C11.0222 23.2002 10.9954 23.4197 11.0929 23.5831C11.1222 23.6391 11.0661 23.683 11.0027 23.7147C10.9003 23.7659 10.8881 23.8781 10.9759 23.9293L11.01 23.9513C11.1417 23.9513 11.2758 23.9708 11.4124 23.9757C11.6001 23.9757 11.7928 23.9903 11.9854 23.9903H12.3902C12.3438 23.9307 12.2933 23.8745 12.239 23.822C12.1756 23.7562 12.1585 23.6806 12.2219 23.6465C12.3829 23.5562 12.2902 23.3855 12.3756 23.2685C12.517 23.0758 12.2415 23.0685 12.2049 22.949C12.2018 22.9362 12.2018 22.9228 12.2049 22.91C12.4902 22.9734 12.6024 22.8905 12.556 22.6296C12.5316 22.4979 12.5755 22.4833 12.678 22.4882C12.7322 22.4955 12.7871 22.4955 12.8413 22.4882C13.0852 22.4443 13.3047 22.2711 13.1876 21.9688C13.1559 21.8834 13.0462 21.8273 13.0852 21.7249C13.1382 21.7554 13.1972 21.7741 13.2581 21.7796C13.319 21.7852 13.3804 21.7775 13.4381 21.7571C13.4958 21.7367 13.5483 21.7041 13.5922 21.6615C13.6361 21.6189 13.6703 21.5673 13.6924 21.5103C13.7972 21.3518 13.907 21.1933 14.007 21.0226C14.0728 20.9153 14.0289 20.7787 14.1118 20.6666C14.1755 20.5897 14.2182 20.4976 14.2357 20.3993C14.2532 20.301 14.245 20.1999 14.2118 20.1057C14.2014 20.0846 14.1984 20.0607 14.2033 20.0377C14.2081 20.0147 14.2206 19.994 14.2386 19.9789C14.4413 19.7589 14.7167 19.6194 15.0141 19.5863C15.0878 19.59 15.1607 19.5693 15.2215 19.5274C15.2823 19.4855 15.3277 19.4248 15.3506 19.3546C15.5812 18.8969 15.6663 18.3795 15.5944 17.872C15.5896 17.8457 15.5913 17.8186 15.5993 17.7931C15.6074 17.7676 15.6216 17.7444 15.6408 17.7257C15.831 17.5501 15.9017 17.2868 16.0821 17.1136C16.1959 16.9848 16.2666 16.8237 16.2845 16.6528C16.3009 16.6012 16.3068 16.5469 16.3017 16.4931C16.2967 16.4392 16.2808 16.3869 16.2551 16.3394C16.2293 16.2918 16.1943 16.2499 16.152 16.2162C16.1097 16.1825 16.0611 16.1576 16.009 16.1431ZM9.67368 6.81817C9.74928 6.77916 9.91754 6.70356 10.0029 6.85719C10.0297 6.90352 10.0273 6.95229 10.0029 6.94985C9.8517 6.93522 9.75903 7.0352 9.68344 7.1303C9.68344 7.1425 9.6493 7.14494 9.61516 7.16201C9.58102 7.17908 9.57127 7.13274 9.57371 7.12055C9.59809 7.0035 9.60297 6.84256 9.67368 6.81817ZM10.5296 2.96286C10.4784 3.04577 10.4248 3.05065 10.354 2.98968C10.4101 2.91653 10.4784 2.93603 10.5296 2.95067V2.96286ZM8.72266 7.49852C8.77852 7.31297 8.87235 7.14108 8.99821 6.99375C8.99382 7.09164 8.96661 7.18715 8.91877 7.27267C8.87093 7.35819 8.80378 7.43136 8.72266 7.48633V7.49852ZM9.08356 6.94254C9.07684 6.93235 9.06951 6.92258 9.06161 6.91327C9.07511 6.90189 9.09092 6.89357 9.10794 6.88889C9.10794 6.88889 9.12501 6.90352 9.13477 6.91084L9.08356 6.94254ZM8.70071 6.53043C8.87491 6.40088 9.08375 6.32618 9.30059 6.31584C9.44202 6.29145 9.50055 6.43045 9.50543 6.53774C9.5103 6.64504 9.39082 6.5792 9.32985 6.59626C9.24975 6.60369 9.16957 6.583 9.10307 6.53774C8.98292 6.49723 8.85173 6.50511 8.73729 6.55969C8.71047 6.61821 8.63975 6.60846 8.62999 6.58407C8.62024 6.55969 8.68608 6.55237 8.70071 6.51823V6.53043Z" fill="#A6F94E"/>
<path d="M11.4269 23.9853C11.2904 23.9853 11.1563 23.9707 11.0246 23.9609L10.9904 23.939C10.9027 23.8877 10.9149 23.7756 11.0173 23.7244C11.0807 23.6927 11.1368 23.6488 11.1075 23.5927C11.01 23.4293 11.0368 23.2098 10.8929 23.0757C10.7663 22.9277 10.682 22.7483 10.6491 22.5563C10.5418 22.2271 10.6491 21.9199 10.6247 21.6053C10.6003 21.2907 10.5027 20.9786 10.4832 20.6567C10.4832 20.6079 10.4662 20.5518 10.4613 20.5006C10.4345 20.2738 10.5149 20.0471 10.4271 19.8154C10.3662 19.6569 10.4784 19.4886 10.4735 19.3277C10.4735 18.8254 10.1565 18.5303 9.76143 18.3279C9.62905 18.2753 9.50979 18.1943 9.41205 18.0907C9.31432 17.987 9.24046 17.8633 9.19569 17.728C9.16887 17.6256 9.08352 17.5744 9.02499 17.5086C8.97358 17.4486 8.93014 17.3822 8.89575 17.311C8.92889 17.3293 8.96309 17.3456 8.99817 17.3598C9.27128 17.4387 9.55546 17.4725 9.83946 17.4598C10.4467 17.5134 10.9514 18.2913 10.9466 18.9229C10.9466 19.2253 10.8124 19.5155 10.8271 19.8178C10.8271 20.0276 10.9149 20.23 10.9417 20.4397C11.01 20.9883 10.6417 21.7126 10.9417 22.2247C11.0051 22.3295 11.1026 22.4149 11.1611 22.5246C11.236 22.6984 11.271 22.8867 11.2636 23.0757C11.2958 23.3825 11.3504 23.6865 11.4269 23.9853Z" fill="#FDE55C"/>
<path d="M19.6984 2.79688C19.5546 2.87491 19.3424 2.79688 19.2107 2.88954C19.0682 2.95265 18.9088 2.96721 18.7572 2.931C18.6893 2.92848 18.6217 2.9407 18.5589 2.96679C18.4962 2.99289 18.4399 3.03226 18.3938 3.08219C18.2307 3.22687 18.0238 3.31273 17.8061 3.32604C17.6268 3.3407 17.4544 3.40227 17.3063 3.50456C17.1582 3.60685 17.0396 3.74627 16.9624 3.90885C16.8502 4.08686 16.7308 4.27463 16.4747 4.23561C16.0919 4.17465 15.7432 3.96738 15.87 3.48211C15.8785 3.45098 15.8785 3.41813 15.87 3.387C15.835 3.29319 15.8384 3.18937 15.8795 3.09807C15.9206 3.00678 15.996 2.93535 16.0894 2.8993C16.173 2.85608 16.2489 2.79921 16.3138 2.73104C16.338 2.71195 16.3569 2.68706 16.3689 2.65868C16.3809 2.6303 16.3856 2.59934 16.3824 2.56869C16.3792 2.53804 16.3684 2.50869 16.3508 2.48336C16.3333 2.45802 16.3096 2.43753 16.2821 2.42378C16.226 2.38233 16.1772 2.36526 16.165 2.27991C16.1497 2.14818 16.0949 2.02416 16.0079 1.92408C15.9209 1.82401 15.8056 1.75254 15.6773 1.71905C15.5773 1.68735 15.5091 1.75319 15.4335 1.74831C15.3068 1.74745 15.1805 1.73685 15.0555 1.71661C14.9214 1.69223 14.9116 1.6337 14.9067 1.52641C14.9019 1.41911 14.9458 1.40204 15.0433 1.3679C15.1746 1.33881 15.3088 1.3249 15.4432 1.32645C15.7274 1.24615 16.0054 1.14509 16.2748 1.02407C16.4091 0.982587 16.5471 0.954006 16.6869 0.938721C17.7771 1.40568 18.7921 2.03189 19.6984 2.79688Z" fill="white"/>
<path d="M12.0122 2.20207C12.1634 2.1094 12.3292 1.99235 12.4999 2.046C12.6783 2.07904 12.8601 2.09051 13.0413 2.08014C13.0943 2.07919 13.1457 2.09836 13.1851 2.13379C13.227 2.19425 13.2884 2.23843 13.359 2.25887C13.4297 2.2793 13.5052 2.27474 13.5729 2.24596C13.6119 2.22889 13.6924 2.20938 13.7216 2.26547C13.7671 2.34692 13.8327 2.41542 13.912 2.46449C13.9914 2.51356 14.082 2.54158 14.1752 2.5459C14.2557 2.56053 14.2752 2.62149 14.263 2.69709C14.2516 2.75734 14.2634 2.81966 14.2959 2.87163C14.3285 2.9236 14.3794 2.96141 14.4385 2.97752C14.4718 2.98466 14.5028 2.99979 14.5289 3.02158C14.555 3.04338 14.5754 3.07119 14.5884 3.10263C14.6013 3.13406 14.6064 3.16818 14.6033 3.20203C14.6001 3.23589 14.5888 3.26847 14.5702 3.29696C14.5564 3.32876 14.536 3.35724 14.5103 3.38051C14.4846 3.40379 14.4542 3.42131 14.4212 3.43193C14.3882 3.44254 14.3534 3.446 14.3189 3.44207C14.2845 3.43814 14.2513 3.42692 14.2215 3.40914C14.1459 3.37744 14.0728 3.33842 13.9899 3.29696C13.9582 3.41645 14.0411 3.50424 14.0191 3.60666C13.9972 3.70908 14.0045 3.81393 13.8533 3.7993C13.8313 3.7993 13.785 3.7993 13.785 3.81881C13.785 4.06266 13.5924 3.95049 13.4875 3.95781C13.4054 3.95998 13.3242 3.94065 13.2519 3.90172C13.1796 3.86279 13.1188 3.80562 13.0754 3.7359C12.9559 3.56033 12.8316 3.46279 12.6316 3.58715C12.579 3.60194 12.5233 3.60194 12.4706 3.58715C12.4571 3.58655 12.4438 3.58319 12.4315 3.57728C12.4193 3.57136 12.4084 3.56302 12.3995 3.55275C12.3906 3.54248 12.3839 3.5305 12.3798 3.51755C12.3756 3.50459 12.3742 3.49094 12.3755 3.47742C12.3712 3.4545 12.3758 3.43078 12.3886 3.41123C12.4013 3.39168 12.4211 3.37782 12.4438 3.37256C12.479 3.35572 12.5171 3.34579 12.556 3.3433C12.7682 3.3433 12.9803 3.38963 13.1534 3.18479C13.2656 3.05311 13.4436 3.18479 13.6411 3.18479C13.5698 3.15946 13.5045 3.11977 13.4491 3.06818C13.3938 3.01659 13.3496 2.95419 13.3193 2.88485C13.305 2.84117 13.2816 2.80103 13.2506 2.76708C13.2196 2.73314 13.1818 2.70616 13.1396 2.68794C13.0974 2.66973 13.0518 2.66069 13.0058 2.66142C12.9599 2.66216 12.9146 2.67265 12.873 2.69221C12.84 2.69912 12.806 2.69912 12.773 2.69221C12.5277 2.6484 12.2781 2.63366 12.0293 2.64832C11.9561 2.64832 11.8586 2.62393 11.8415 2.52883C11.8262 2.48475 11.8261 2.43684 11.8411 2.39267C11.8561 2.34851 11.8854 2.31061 11.9244 2.28498C11.9605 2.26693 11.989 2.23669 12.0049 2.19963L12.0122 2.20207Z" fill="white"/>
<path d="M14.3654 1.17536C14.1728 1.13716 13.9782 1.10948 13.7826 1.09245C13.746 1.09245 13.6997 1.09245 13.6948 1.04124C13.6899 0.990032 13.7363 0.972964 13.785 0.970525C14.3288 0.92907 14.8653 0.833968 15.414 0.841284C15.6476 0.830057 15.8805 0.805632 16.1114 0.768127C16.1504 0.768127 16.2138 0.736426 16.2309 0.802266C16.2479 0.868107 16.204 0.902244 16.1382 0.933945C15.7642 1.13076 15.3563 1.25488 14.936 1.29972C14.8704 1.29792 14.8055 1.31393 14.7482 1.34606C14.4824 1.55821 14.1337 1.57284 13.8533 1.75573C13.734 1.80616 13.6218 1.87172 13.5192 1.95081C13.4788 1.98656 13.4309 2.01278 13.3789 2.02755C13.327 2.04233 13.2725 2.04527 13.2193 2.03616L12.2171 1.95325C12.1854 1.95325 12.139 1.95325 12.139 1.91423C12.139 1.87522 12.1195 1.78255 12.1805 1.72403C12.2242 1.67095 12.2843 1.63381 12.3513 1.61837C12.4183 1.60294 12.4886 1.61008 12.5511 1.63868C12.8584 1.82401 13.1851 1.71184 13.5265 1.75817C13.4388 1.68501 13.4388 1.6972 13.3534 1.69964C13.2143 1.72775 13.0702 1.71763 12.9364 1.67038C12.8828 1.64356 12.8364 1.62161 12.8438 1.55577C12.8511 1.48993 12.9291 1.51919 12.9706 1.50212C13.0705 1.46067 13.1632 1.6021 13.2583 1.51675C13.2876 1.48993 13.4705 1.55577 13.3363 1.40702C13.3295 1.38978 13.3295 1.37061 13.3363 1.35337C13.5802 1.34118 13.7338 0.975402 14.0459 1.16805C14.1362 1.2095 14.2581 1.17536 14.3654 1.17536Z" fill="white"/>
<path d="M21.6956 4.92334C21.7639 5.016 21.8297 5.10867 21.8931 5.20377C21.8698 5.2004 21.8469 5.19468 21.8248 5.1867C21.7794 5.16082 21.7427 5.12187 21.7197 5.0749C21.6966 5.02794 21.6882 4.97514 21.6956 4.92334Z" fill="#A6F94E"/>
<path d="M22.3344 5.90142C22.1759 5.92336 22.0174 5.96238 21.8614 5.9892C21.7711 6.00627 21.6492 6.05992 21.6175 5.96725C21.5663 5.8307 21.7419 5.86971 21.8028 5.81119C21.8175 5.79656 21.8516 5.81119 21.8955 5.79656C21.8199 5.74535 21.6858 5.79656 21.698 5.68439C21.6978 5.62908 21.7116 5.57462 21.738 5.52603C21.7644 5.47745 21.8027 5.4363 21.8492 5.40639C21.9028 5.37713 21.9589 5.36982 21.9735 5.32104C22.0979 5.51125 22.2198 5.7039 22.3344 5.90142Z" fill="#A6F94E"/>
<path d="M8.55189 10.9343C8.85028 10.9039 9.14873 10.9914 9.38343 11.1782C9.46306 11.2376 9.55455 11.2792 9.65167 11.3001C9.71507 11.3172 9.80774 11.344 9.80042 11.4586C9.79311 11.5732 9.66874 11.5659 9.62485 11.5683C9.43811 11.5879 9.24934 11.5713 9.06886 11.5195C9.00058 11.4927 8.92499 11.3586 8.82501 11.2757C8.75175 11.2024 8.65809 11.153 8.55628 11.1339C8.45447 11.1147 8.34925 11.1268 8.25439 11.1684C8.17392 11.2025 8.07882 11.2586 8.03249 11.1562C7.98616 11.0538 8.1032 11.005 8.18368 10.9587C8.32023 10.8977 8.45679 10.9489 8.55189 10.9343Z" fill="#A6F94E"/>
<path d="M20.5787 3.61143C20.3349 3.74067 20.0788 3.85528 19.7886 3.64313C19.7301 3.60167 19.5838 3.71141 19.5984 3.54315C19.6106 3.41635 19.6984 3.38708 19.813 3.331C19.9489 3.27926 20.0953 3.26086 20.2398 3.27735C20.3568 3.38708 20.4763 3.49682 20.5787 3.61143Z" fill="#A6F94E"/>
<path d="M21.6956 5.19395C21.6646 5.35099 21.6077 5.50179 21.5273 5.6402C21.4713 5.74018 21.2664 5.76456 21.1225 5.80358C21.025 5.8304 20.9518 5.79139 20.9543 5.66702C20.955 5.53385 20.9755 5.40153 21.0152 5.27442C21.0502 5.21703 21.0982 5.16876 21.1555 5.13357C21.2127 5.09838 21.2775 5.07729 21.3444 5.07202C21.4249 5.07202 21.5078 5.07202 21.5883 5.07202C21.6688 5.07202 21.7102 5.11104 21.6956 5.19395Z" fill="#A6F94E"/>
<path d="M10.1492 11.5488C10.2338 11.5341 10.3206 11.5365 10.4043 11.5558C10.488 11.575 10.5671 11.6108 10.6369 11.661C10.7198 11.7341 10.7393 11.7805 10.6222 11.8341C10.3163 11.9416 9.98776 11.9677 9.66876 11.9097C9.62731 11.9097 9.53952 11.8902 9.54927 11.8024C9.55903 11.7146 9.63218 11.7561 9.67852 11.7536C9.77849 11.7536 9.87603 11.7878 9.89067 11.6049C9.9053 11.4756 10.0784 11.5854 10.1492 11.5488Z" fill="#A6F94E"/>
<path d="M12.9705 1.37277C12.873 1.41179 12.7901 1.34351 12.6974 1.33863C12.6559 1.33863 12.595 1.36546 12.5877 1.28742C12.5804 1.25822 12.5832 1.22742 12.5956 1.2C12.608 1.17258 12.6293 1.15012 12.6559 1.13623C12.8314 1.03936 13.0318 0.996916 13.2314 1.0143C13.2851 1.0143 13.3656 1.02894 13.368 1.12648C13.3704 1.22402 13.368 1.25084 13.2826 1.2801C13.1973 1.30937 13.0998 1.42154 12.9705 1.37277Z" fill="white"/>
<path d="M9.3371 10.1978C9.37856 10.2149 9.47854 10.149 9.50536 10.2393C9.53218 10.3295 9.55169 10.4392 9.39806 10.466C9.36638 10.4803 9.34007 10.5043 9.32296 10.5346C9.30586 10.5649 9.29885 10.5998 9.30296 10.6343C9.30296 10.6782 9.34929 10.7611 9.23956 10.7684C9.20228 10.7717 9.16499 10.7622 9.13392 10.7413C9.10285 10.7205 9.07989 10.6896 9.06886 10.6538C9.04935 10.5977 9.02741 10.5099 9.10056 10.4685C9.17372 10.427 9.13226 10.4173 9.11276 10.3636C9.04692 10.171 9.18835 10.1856 9.3371 10.1978Z" fill="#A6F94E"/>
<path d="M11.8122 13.1023C11.6757 13.1267 11.6367 13.0365 11.7074 12.9584C11.7781 12.8804 11.8171 12.6999 11.9147 12.5853C11.9805 12.5073 11.9147 12.3878 11.8074 12.3244C11.7635 12.2951 11.683 12.3049 11.6854 12.2171C11.6854 12.1708 11.7123 12.1537 11.7488 12.1635C11.8244 12.1854 11.9171 12.1025 11.9805 12.2171C12.0439 12.3317 11.9951 12.4293 12.0878 12.5171C12.1366 12.5609 12.0098 12.6048 12.0049 12.6195C11.9634 12.7926 11.7976 12.917 11.8049 13.1072L11.8122 13.1023Z" fill="#A6F94E"/>
<path d="M10.9783 11.7511C11.1222 11.6756 11.1051 11.9145 11.2221 11.8999C11.2221 11.9243 11.2221 11.9584 11.2221 11.9755C11.2131 11.9838 11.2021 11.9898 11.1902 11.9928C11.1782 11.9958 11.1658 11.9957 11.1539 11.9926C11.0942 11.9654 11.0292 11.9521 10.9636 11.9535C10.8929 11.9535 10.771 12.0169 10.7832 11.8536C10.7881 11.7487 10.7832 11.7487 10.9783 11.7511Z" fill="#A6F94E"/>
<path d="M9.17375 11.9558C9.12267 11.9609 9.07121 11.9609 9.02012 11.9558C8.94453 11.9387 8.93478 11.8778 8.93721 11.8119C8.93965 11.7461 9.00062 11.7583 9.04207 11.7534H9.14449C9.23471 11.7534 9.34689 11.7534 9.34689 11.8827C9.34689 12.0119 9.21765 11.9168 9.17375 11.9558Z" fill="#A6F94E"/>
<path d="M3.74312 5.13779C3.66997 5.18656 3.59194 5.23533 3.5139 5.15486C3.49328 5.12805 3.48073 5.09592 3.4777 5.06224C3.47468 5.02855 3.48132 4.9947 3.49683 4.96465C3.52853 4.88418 3.61388 4.88906 3.67241 4.90857C3.79433 4.95246 3.70167 5.06951 3.73581 5.15242L3.74312 5.13779Z" fill="#A6F94E"/>
<path d="M22.5954 8.10094C22.5125 8.10094 22.493 8.0351 22.5101 8.03266C22.632 7.99852 22.6125 7.80832 22.7539 7.81564C22.8173 7.81564 22.8758 7.81564 22.8685 7.90586C22.8685 7.96683 22.8685 8.03023 22.7783 8.02291C22.6881 8.0156 22.6125 7.99365 22.5954 8.10094Z" fill="#A6F94E"/>
<path d="M11.6488 11.9124C11.7171 11.9124 11.7537 11.9124 11.7659 11.9538C11.8049 12.0928 11.6293 12.0879 11.6001 12.1977C11.6001 12.2342 11.4903 12.1562 11.4489 12.1026C11.4074 12.0489 11.4343 12.0099 11.4489 12.0148C11.489 12.0259 11.5318 12.0216 11.5688 12.0026C11.6059 11.9836 11.6344 11.9514 11.6488 11.9124Z" fill="#A6F94E"/>
<path d="M9.74681 11.2588C9.70779 11.2441 9.61757 11.2978 9.62732 11.1905C9.63707 11.0832 9.70291 11.0954 9.77363 11.0954C9.84435 11.0954 9.87117 11.0954 9.87361 11.1783C9.87605 11.2612 9.8224 11.2588 9.74681 11.2588Z" fill="#A6F94E"/>
<path d="M11.3977 11.8047C11.3977 11.8047 11.3977 11.7438 11.466 11.7511C11.4792 11.7514 11.4923 11.7544 11.5043 11.7599C11.5164 11.7654 11.5272 11.7733 11.5361 11.7831C11.545 11.7929 11.5518 11.8044 11.5561 11.8169C11.5604 11.8295 11.5621 11.8427 11.5611 11.856C11.5611 11.8974 11.5806 11.9584 11.505 11.9559C11.4294 11.9535 11.3977 11.912 11.3977 11.8047Z" fill="#A6F94E"/>
<path d="M11.8781 12.078C11.8123 12.078 11.8074 12.0463 11.8074 11.9927C11.8074 11.939 11.8318 11.9171 11.8903 11.9147C11.9488 11.9122 11.9732 11.9512 11.9732 12.0122C11.9732 12.0732 11.9415 12.0805 11.8781 12.078Z" fill="#A6F94E"/>
<path d="M23.4903 15.1213C23.4903 15.1872 23.4611 15.1945 23.4074 15.1969C23.3538 15.1994 23.327 15.1506 23.327 15.0945C23.327 15.0384 23.3757 15.0335 23.4221 15.0311C23.4684 15.0287 23.4928 15.0701 23.4903 15.1213Z" fill="#A6F94E"/>
<path d="M12.2536 12.8973C12.1902 12.8973 12.178 12.8729 12.1756 12.8168C12.1731 12.7607 12.2146 12.7339 12.2756 12.7339C12.3365 12.7339 12.339 12.7802 12.3414 12.8266C12.3438 12.8729 12.3048 12.9143 12.2536 12.8973Z" fill="#A6F94E"/>
<g style="mix-blend-mode:multiply" opacity="0.49">
<path d="M23.4538 8.41297C23.332 8.02475 23.1904 7.64303 23.0295 7.26931C23.0027 7.2059 22.971 7.1425 22.9417 7.0791C22.9834 7.48419 23.0046 7.89113 23.0051 8.29837C23.0048 9.20098 22.9034 10.1007 22.7027 10.9807C22.108 13.5581 20.6788 15.867 18.6373 17.5487C16.5957 19.2305 14.0559 20.1911 11.4123 20.2813C11.2782 20.2813 11.1441 20.2813 11.0075 20.2813C10.6783 20.2813 10.3516 20.2667 10.0321 20.2423C7.89461 20.0679 5.84284 19.324 4.09016 18.0881C2.33748 16.8522 0.94788 15.1693 0.0658569 13.2144C0.353095 16.0007 1.60599 18.5988 3.60746 20.5584C5.60893 22.518 8.23286 23.7157 11.0246 23.944C11.3465 23.9708 11.6708 23.983 12 23.983C12.1366 23.983 12.2707 23.983 12.4073 23.983C15.0508 23.8928 17.5906 22.9322 19.6322 21.2504C21.6738 19.5686 23.1029 17.2598 23.6976 14.6824C23.8983 13.8024 23.9997 12.9027 24 12.0001C24.0016 10.7835 23.8174 9.57389 23.4538 8.41297Z" fill="#9FA1A4"/>
</g>
</svg>
